<?xml version="1.0" encoding="iso-8859-1"?>
<!-- Generator: Adobe Illustrator 19.0.0, SVG Export Plug-In . SVG Version: 6.00 Build 0)  -->
<svg version="1.1" id="Layer_1" xmlns="http://www.w3.org/2000/svg" xmlns:xlink="http://www.w3.org/1999/xlink" x="0px" y="0px"
	 viewBox="0 0 401 401" style="enable-background:new 0 0 401 401;" xml:space="preserve">
<g>
	<g>
		<g>
			<path d="M341.5,0h-282C55.357,0,52,3.358,52,7.5v386c0,4.142,3.357,7.5,7.5,7.5h282c4.143,0,7.5-3.358,7.5-7.5V7.5
				C349,3.358,345.643,0,341.5,0z M281.12,25.607l42.273,42.273H281.12V25.607z M334,386H67v-10.973h267V386z M334,334.053H143.996
				c-4.143,0-7.5,3.358-7.5,7.5c0,4.142,3.358,7.5,7.5,7.5H334v10.973H67v-10.973h32.642c4.143,0,7.5-3.358,7.5-7.5
				c0-4.142-3.357-7.5-7.5-7.5H67V323.08h267V334.053z M334,308.08H67V15h199.12v60.38c0,4.142,3.357,7.5,7.5,7.5H334V308.08z
				 M334,57.273L291.727,15H334V57.273z"/>
			<path d="M128.423,338.689C128.612,339.139,128.232,338.229,128.423,338.689L128.423,338.689z"/>
			<path d="M125.189,348.074c3.244-1.815,4.679-5.952,3.234-9.385c-2.589-6.253-11.823-5.948-14.019,0.431
				C112.199,345.524,119.304,351.366,125.189,348.074z"/>
		</g>
	</g>
</g>
<g>
</g>
<g>
</g>
<g>
</g>
<g>
</g>
<g>
</g>
<g>
</g>
<g>
</g>
<g>
</g>
<g>
</g>
<g>
</g>
<g>
</g>
<g>
</g>
<g>
</g>
<g>
</g>
<g>
</g>
</svg>
